<svg width="1113" height="3253" viewBox="0 0 1113 3253" fill="none" xmlns="http://www.w3.org/2000/svg">
<g opacity="0.5">
<path opacity="0.1" fill-rule="evenodd" clip-rule="evenodd" d="M345.882 3191.87L404.552 3252.86L581.927 3252.86L581.927 3191.87L581.927 2891.43L581.927 2530L581.927 2168.57L581.927 1807.14L581.927 1445.72L581.927 1084.29L581.927 722.858L581.927 361.429L581.927 60.9912L581.927 -2.98198e-05L523.257 -2.55739e-05L453.671 60.9912C385.45 119.723 247.643 241.706 208.075 361.429C175.984 461.996 212.246 564.157 248.124 665.234C254.958 684.488 261.779 703.702 268.11 722.858C293.994 803.974 311.736 886.126 329.398 967.911C337.805 1006.84 346.193 1045.68 355.433 1084.29C358.885 1098.05 362.463 1111.85 366.046 1125.67C393.63 1232.03 421.567 1339.76 395.001 1445.72C384.375 1490.12 364.179 1534.83 343.946 1579.62C309.622 1655.6 275.194 1731.82 287.212 1807.14C297.677 1872.74 343.772 1939.01 389.822 2005.21C427.826 2059.85 465.799 2114.44 483.689 2168.57C523.257 2288.3 464.587 2410.28 375.899 2530C359.162 2552.6 341.405 2575.27 323.608 2598C247.102 2695.69 169.871 2794.3 169.871 2891.43C169.871 3011.15 287.212 3133.14 345.882 3191.87ZM863.361 2330.37C903.297 2276.22 943.191 2222.12 965.255 2168.57C996.866 2091.86 991.878 2014.02 986.911 1936.5C984.155 1893.5 981.406 1850.6 984.913 1808.05C988.436 1764.33 998.272 1720.96 1008.08 1677.68C1025.65 1600.22 1043.15 1523.08 1024.23 1444.81C1006.46 1372.94 956.572 1300.09 906.822 1227.43C874.01 1179.52 841.259 1131.69 817.822 1084.29C758.848 965.015 758.848 843.033 817.822 723.761C847.309 662.77 891.539 602.457 935.769 542.143C979.999 481.83 1024.23 421.517 1053.72 360.526C1112.69 241.254 1112.69 119.272 1112.69 59.6359L1112.69 0.000175911L581.928 0.000214321L581.928 59.636L581.928 360.525L581.928 723.761L581.928 1084.29L581.928 1444.81L581.928 1808.05L581.928 2168.57L581.928 2529.1L581.928 2892.33L581.928 3193.22L581.928 3252.86L994.742 3252.86L975.084 3193.22C974.297 3190.84 973.478 3188.35 972.627 3185.76C952.245 3123.82 913.748 3006.83 857.137 2892.33C847.631 2872.67 837.614 2853.08 827.621 2833.53C775.623 2731.83 724.286 2631.42 749.019 2529.1C765.268 2463.38 814.345 2396.83 863.361 2330.37Z" fill="#36BCEE"/>
<path opacity="0.1" fill-rule="evenodd" clip-rule="evenodd" d="M766.807 60.9912L708.136 0.000105087L530.761 9.22505e-05L530.761 0.000207218L117.947 0.000117594L137.605 59.6359C138.392 62.0247 139.211 64.5135 140.062 67.0982C160.444 129.04 198.941 246.032 255.552 360.525C265.058 380.188 275.075 399.781 285.068 419.326C337.066 521.03 388.403 621.442 363.67 723.762C347.422 789.485 298.344 856.031 249.328 922.493C209.393 976.644 169.498 1030.74 147.434 1084.29C115.823 1161 120.811 1238.84 125.778 1316.36C128.534 1359.36 131.283 1402.26 127.776 1444.81C124.253 1488.53 114.418 1531.9 104.604 1575.18C87.0371 1652.64 69.5418 1729.79 88.4603 1808.05C106.228 1879.92 156.117 1952.77 205.868 2025.43C238.679 2073.34 271.43 2121.17 294.867 2168.57C353.841 2287.85 353.841 2409.83 294.867 2529.1C265.381 2590.09 221.15 2650.4 176.92 2710.72C132.69 2771.03 88.4602 2831.34 58.9734 2892.33C-1.84781e-05 3011.61 -2.16987e-05 3133.59 -2.32732e-05 3193.22L-2.48477e-05 3252.86L530.761 3252.86L589.431 3252.86L659.017 3191.87C727.238 3133.14 865.045 3011.15 904.613 2891.43C936.705 2790.86 900.442 2688.7 864.564 2587.63C857.73 2568.37 850.91 2549.16 844.579 2530C818.695 2448.89 800.953 2366.73 783.29 2284.95C774.884 2246.02 766.495 2207.18 757.256 2168.57C753.804 2154.81 750.226 2141.01 746.642 2127.19C719.058 2020.83 691.122 1913.1 717.687 1807.14C728.313 1762.74 748.51 1718.03 768.742 1673.24C803.066 1597.26 837.495 1521.04 825.477 1445.72C815.012 1380.12 768.917 1313.85 722.867 1247.65C684.863 1193.01 646.89 1138.42 629 1084.29C589.431 964.564 648.102 842.581 736.789 722.858C753.526 700.264 771.284 677.59 789.08 654.865C865.586 557.175 942.817 458.558 942.817 361.429C942.817 241.706 825.477 119.723 766.807 60.9912Z" fill="#36BCEE"/>
</g>
</svg>
