<svg width="769" height="576" viewBox="0 0 769 576" fill="none" xmlns="http://www.w3.org/2000/svg">
<path d="M768.875 281.666C768.34 297.14 766.066 312.305 762.588 327.057C759.11 341.809 754.429 356.149 748.409 369.972C742.39 383.899 735.033 397.31 726.472 410.102C717.911 422.894 708.013 435.171 697.044 446.725C623.876 535.65 479.412 578.978 345.515 557.624C326.387 555.251 307.794 552.156 289.602 549.268C206.536 541.943 136.712 506.043 91.3659 456.422C82.0025 446.725 72.2378 437.646 63.5432 427.846C-26.4792 346.554 -15.3767 229.982 62.4733 149.103C72.238 138.993 81.7351 128.883 92.1686 119.289C150.355 65.2319 226.6 23.9671 317.292 9.93706C331.203 7.25485 345.516 5.29475 360.096 3.85048C374.676 2.50938 389.256 0.858822 404.238 0.343012C484.897 -2.95817 566.492 17.6742 627.086 59.1453C638.991 66.8825 649.96 75.2386 660.928 83.5947C674.037 93.7046 686.21 104.64 697.446 116.091C731.02 150.753 756.435 192.018 765.665 235.655C768.206 250.82 769.41 266.191 768.875 281.666Z" fill="#ecf5df"/>
<path d="M712.971 559.061C713.106 560.905 712.768 562.721 712.045 564.401C711.805 564.96 711.526 565.507 711.203 566.039C709.826 570.184 707.013 574.185 702.094 575.523C698.069 576.623 693.909 575.756 690.585 573.612C689.87 573.209 689.073 572.908 688.298 572.594C682.521 570.949 678.79 566.019 678.489 560.836C678.406 560.106 678.271 559.423 678.203 558.706C677.082 552.888 680.723 547.788 686.056 545.432C686.816 545.098 687.613 544.818 688.441 544.599C692.646 543.725 696.926 542.216 701.274 543.493C705.877 544.825 708.879 548.368 710.804 552.131C711.203 552.827 711.541 553.551 711.835 554.295C712.128 555.039 712.392 555.804 712.595 556.596C712.79 557.381 712.926 558.208 712.971 559.061Z" fill="#ecf5df"/>
<path d="M645.39 503.219C648.316 501.285 651.549 499.983 654.844 499.301C655.943 499.074 657.046 498.908 658.161 498.813C665.99 496.614 674.651 496.388 680.507 501.398C685.305 505.493 686.976 511.639 685.928 517.937C685.798 519.235 685.898 520.542 685.959 521.832C687.554 530.789 682.235 540.267 673.95 545.602C672.812 546.406 671.792 547.231 670.665 548.003C661.948 554.993 650.866 555.211 643.032 550.643C641.917 549.991 640.865 549.24 639.89 548.391C635.328 543.85 629.667 539.82 628.53 533.042C627.292 525.886 630.878 518.664 635.623 512.608C636.469 511.434 637.406 510.309 638.41 509.224C639.413 508.138 640.473 507.071 641.623 506.054C642.766 505.054 644.022 504.092 645.39 503.219Z" fill="#ecf5df"/>
</svg>
