<svg width="13" height="13" viewBox="0 0 13 13" fill="none" xmlns="http://www.w3.org/2000/svg">
<path fill-rule="evenodd" clip-rule="evenodd" d="M5.00352 5.91799C5.00121 5.94658 5.00014 5.97531 5.0003 6.00409C5.00014 6.0331 5.00123 6.06205 5.00357 6.09087L0.790185 10.2945C0.696946 10.3877 0.622985 10.4984 0.572525 10.6202C0.522065 10.742 0.496094 10.8726 0.496094 11.0045C0.496094 11.1363 0.522065 11.2669 0.572525 11.3887C0.622985 11.5105 0.696946 11.6212 0.790185 11.7145C0.883424 11.8077 0.994113 11.8817 1.11594 11.9321C1.23776 11.9826 1.36833 12.0085 1.50019 12.0085C1.63204 12.0085 1.76261 11.9826 1.88443 11.9321C2.00626 11.8817 2.11695 11.8077 2.21019 11.7145L6.25043 7.67421L10.2903 11.7141C10.4786 11.9024 10.734 12.0082 11.0003 12.0082C11.2666 12.0082 11.522 11.9024 11.7103 11.7141C11.8986 11.5258 12.0044 11.2704 12.0044 11.0041C12.0044 10.7378 11.8986 10.4824 11.7103 10.2941L7.49697 6.09055C7.49928 6.06196 7.50035 6.03324 7.50019 6.00446C7.50035 5.97545 7.49926 5.94649 7.49692 5.91768L11.7103 1.71409C11.8035 1.62085 11.8775 1.51016 11.928 1.38834C11.9784 1.26651 12.0044 1.13595 12.0044 1.00409C12.0044 0.872228 11.9784 0.741661 11.928 0.619839C11.8775 0.498017 11.8035 0.387327 11.7103 0.294088C11.6171 0.20085 11.5064 0.126888 11.3846 0.0764274C11.2627 0.0259671 11.1322 -3.89095e-06 11.0003 -3.90248e-06C10.8684 -3.91401e-06 10.7379 0.025967 10.6161 0.0764273C10.4942 0.126888 10.3835 0.20085 10.2903 0.294088L6.25006 4.33433L2.21019 0.294458C2.02188 0.106154 1.76649 0.000366211 1.50019 0.000366211C1.23388 0.000366211 0.978489 0.106154 0.790185 0.294458C0.601881 0.482762 0.496094 0.738156 0.496094 1.00446C0.496094 1.27076 0.601881 1.52615 0.790185 1.71446L5.00352 5.91799Z" fill="#212B32"/>
</svg>
