<svg width="536" height="358" viewBox="0 0 536 358" fill="none" xmlns="http://www.w3.org/2000/svg">
<path d="M269.971 0.282611C342.12 -2.77629 401.714 19.4703 439.457 44.0458C445.337 47.3132 451.058 50.7197 456.462 54.3C461.388 57.5327 466.076 60.8697 470.685 64.311C497.065 82.7687 521.697 102.234 525.511 124.133C526.624 128.652 526.783 133.101 528.134 137.725C533.298 151.524 536 165.95 536 180.827C536 185.937 535.682 190.977 535.126 195.948C536 220.037 531.232 244.021 504.852 265.573C499.926 270.335 495.396 275.201 490.629 279.894C470.844 316.323 408.071 346.216 324.003 354.42C315.342 355.602 306.602 356.505 297.623 357.096C288.644 357.687 279.665 358 270.448 358C262.423 358 254.477 357.757 246.69 357.305C238.823 356.853 231.116 356.158 223.488 355.254C139.42 348.65 80.6206 320.841 34.9317 291.017C29.0517 287.506 23.9663 283.822 19.5166 279.963C-2.41406 260.671 -5.8308 237.486 9.10749 216.213C9.26641 213.571 8.78965 210.721 8.07452 207.801C6.08805 199.007 5.05508 190.004 5.05508 180.827C5.05508 162.474 9.26641 144.781 16.9739 128.131C19.5961 122.569 22.4566 117.146 25.635 111.828C28.4955 106.684 32.0711 101.574 36.2825 96.5684C40.4143 91.5282 45.0229 86.5923 48.7575 81.7258C62.345 47.3132 124.323 22.9811 194.962 9.87646C201.875 8.24273 208.867 6.7828 216.098 5.53142C223.329 4.28005 230.798 3.23729 238.426 2.43779C248.676 1.29073 259.244 0.595448 269.971 0.282611Z" fill="#D0EEF6"/>
</svg>
