<svg width="200" height="194" viewBox="0 0 200 194" fill="none" xmlns="http://www.w3.org/2000/svg">
<path d="M59.325 20.5111C69.3401 13.8912 80.4081 9.43414 91.6853 7.10209C95.4444 6.32474 99.2225 5.75658 103.039 5.43056C129.833 -2.09701 159.48 -2.86944 179.523 14.2799C195.946 28.294 201.662 49.3298 198.078 70.8869C197.633 75.3307 197.975 79.8017 198.182 84.2186C203.641 114.875 185.436 147.318 157.08 165.578C153.185 168.329 149.692 171.154 145.836 173.794C115.998 197.718 78.0681 198.464 51.254 182.831C47.4399 180.601 43.8369 178.027 40.5027 175.121C24.8872 159.58 5.51176 145.787 1.61882 122.589C-2.61824 98.0929 9.65519 73.3747 25.8947 52.6486C28.7935 48.6272 31.999 44.7799 35.4345 41.063C38.87 37.3461 42.4971 33.6938 46.431 30.2156C50.3456 26.7926 54.6437 23.499 59.325 20.5111Z" fill="#ECC5CE"/>
</svg>
