<svg width="210" height="196" viewBox="0 0 210 196" fill="none" xmlns="http://www.w3.org/2000/svg">
<path d="M209.824 95.3891C210.637 106.339 208.606 117.126 204.273 127.103C202.829 130.428 201.159 133.672 199.218 136.836C190.959 161.452 174.079 185.217 144.562 193.166C120.416 199.695 95.457 194.545 75.5082 181.811C71.2205 179.418 66.4364 177.633 61.7877 175.768C27.1255 165.994 4.73948 136.714 2.93415 105.933C2.43769 101.594 1.62527 97.5385 1.21907 93.2803C-5.50576 58.728 16.3387 28.4339 48.338 14.4426C52.8965 12.4554 57.6806 10.7927 62.6452 9.49497C87.8746 4.30402 113.555 -4.65848 139.642 2.92519C167.264 10.8333 185.272 31.881 196.826 54.2265C199.218 58.363 201.249 62.6618 203.009 67.0822C204.769 71.5026 206.349 76.0447 207.568 80.749C208.741 85.4128 209.554 90.3198 209.824 95.3891Z" fill="#D9ECBF"/>
</svg>
