<svg width="25" height="18" viewBox="0 0 25 18" fill="none" xmlns="http://www.w3.org/2000/svg">
<path d="M21 7.60156C21.1602 7.18359 21.25 6.72656 21.25 6.25C21.25 4.17969 19.5703 2.5 17.5 2.5C16.7305 2.5 16.0117 2.73438 15.418 3.13281C14.3359 1.25781 12.3164 0 10 0C6.54688 0 3.75 2.79688 3.75 6.25C3.75 6.35547 3.75391 6.46094 3.75781 6.56641C1.57031 7.33594 0 9.42188 0 11.875C0 14.9805 2.51953 17.5 5.625 17.5H20C22.7617 17.5 25 15.2617 25 12.5C25 10.082 23.2812 8.0625 21 7.60156ZM15.8086 11.0664L11.6914 15.1836C11.4492 15.4258 11.0508 15.4258 10.8086 15.1836L6.69141 11.0664C6.29688 10.6719 6.57813 10 7.13281 10H9.6875V5.625C9.6875 5.28125 9.96875 5 10.3125 5H12.1875C12.5312 5 12.8125 5.28125 12.8125 5.625V10H15.3672C15.9219 10 16.2031 10.6719 15.8086 11.0664Z" fill="#333333"/>
</svg>
