<?xml version="1.0" encoding="UTF-8"?>
<svg width="21px" height="24px" viewBox="0 0 21 24" version="1.1" xmlns="http://www.w3.org/2000/svg" xmlns:xlink="http://www.w3.org/1999/xlink">
    <g id="Adding-Event" stroke="none" stroke-width="1" fill="none" fill-rule="evenodd">
        <g id="Adding-Event---Design" transform="translate(-994.000000, -1936.000000)" fill="#999" fill-rule="nonzero">
            <path d="M994.5625,1945 L1014.4375,1945 C1014.74688,1945 1015,1945.25312 1015,1945.5625 L1015,1957.75 C1015,1958.99219 1013.99219,1960 1012.75,1960 L996.25,1960 C995.007812,1960 994,1958.99219 994,1957.75 L994,1945.5625 C994,1945.25312 994.253125,1945 994.5625,1945 Z M1015,1943.4 L1015,1941.6 C1015,1940.275 1013.99219,1939.2 1012.75,1939.2 L1010.5,1939.2 L1010.5,1936.6 C1010.5,1936.27 1010.24688,1936 1009.9375,1936 L1008.0625,1936 C1007.75312,1936 1007.5,1936.27 1007.5,1936.6 L1007.5,1939.2 L1001.5,1939.2 L1001.5,1936.6 C1001.5,1936.27 1001.24688,1936 1000.9375,1936 L999.0625,1936 C998.753125,1936 998.5,1936.27 998.5,1936.6 L998.5,1939.2 L996.25,1939.2 C995.007812,1939.2 994,1940.275 994,1941.6 L994,1943.4 C994,1943.73 994.253125,1944 994.5625,1944 L1014.4375,1944 C1014.74688,1944 1015,1943.73 1015,1943.4 Z" id="Shape"></path>
        </g>
    </g>
</svg>
