<?xml version="1.0" encoding="UTF-8"?>
<svg width="25px" height="25px" viewBox="0 0 25 25" version="1.1" xmlns="http://www.w3.org/2000/svg" xmlns:xlink="http://www.w3.org/1999/xlink">
    <title>search@1x</title>
    <g id="Adding-Event" stroke="none" stroke-width="1" fill="none" fill-rule="evenodd">
        <g id="Adding-Event---Design" transform="translate(-994.000000, -3212.000000)" fill="#333" fill-rule="nonzero">
            <g id="search" transform="translate(994.000000, 3212.000000)">
                <path d="M24.6600069,21.6141002 L19.7914867,16.7464115 C19.5717441,16.5267064 19.2738707,16.404648 18.9613479,16.404648 L18.1653912,16.404648 C19.513146,14.6811835 20.3139859,12.5134264 20.3139859,10.1552583 C20.3139859,4.54545455 15.7677549,0 10.1569929,0 C4.54623097,0 0,4.54545455 0,10.1552583 C0,15.765062 4.54623097,20.3105166 10.1569929,20.3105166 C12.5155639,20.3105166 14.6836912,19.5098135 16.4074501,18.1622888 L16.4074501,18.9581096 C16.4074501,19.270579 16.5295294,19.5684015 16.749272,19.7881066 L21.6177922,24.6557953 C22.0768101,25.1147349 22.8190519,25.1147349 23.2731867,24.6557953 L24.6551237,23.2740943 C25.1141416,22.8151548 25.1141416,22.0730397 24.6600069,21.6141002 Z M10.1569929,16.404648 C6.70459196,16.404648 3.90653574,13.611952 3.90653574,10.1552583 C3.90653574,6.70344693 6.6997088,3.90586857 10.1569929,3.90586857 C13.6093939,3.90586857 16.4074501,6.69856459 16.4074501,10.1552583 C16.4074501,13.6070696 13.6142771,16.404648 10.1569929,16.404648 Z" id="Shape"></path>
            </g>
        </g>
    </g>
</svg>
