<svg width="24" height="24" viewBox="0 0 24 24" fill="none" xmlns="http://www.w3.org/2000/svg">
<path d="M15.5002 12.0002C15.5009 12.1318 15.4757 12.2623 15.426 12.3841C15.3762 12.5059 15.3029 12.6167 15.2102 12.7102L10.2102 17.7102C10.1169 17.8034 10.0063 17.8774 9.88443 17.9278C9.76261 17.9783 9.63204 18.0043 9.50019 18.0043C9.36833 18.0043 9.23776 17.9783 9.11594 17.9278C8.99411 17.8774 8.88342 17.8034 8.79018 17.7102C8.69695 17.6169 8.62299 17.5063 8.57253 17.3844C8.52206 17.2626 8.49609 17.132 8.49609 17.0002C8.49609 16.8683 8.52206 16.7378 8.57253 16.6159C8.62299 16.4941 8.69695 16.3834 8.79018 16.2902L13.0902 12.0002L8.79018 7.71019C8.60188 7.52188 8.49609 7.26649 8.49609 7.00019C8.49609 6.73388 8.60188 6.47849 8.79018 6.29019C8.97849 6.10188 9.23388 5.99609 9.50019 5.99609C9.76649 5.99609 10.0219 6.10188 10.2102 6.29019L15.2102 11.2902C15.3029 11.3836 15.3762 11.4944 15.426 11.6163C15.4757 11.7381 15.5009 11.8686 15.5002 12.0002Z" fill="#033F85"/>
</svg>
