<svg width="26" height="16" viewBox="0 0 26 16" fill="none" xmlns="http://www.w3.org/2000/svg">
<path d="M1 7.00061C0.447715 7.00061 -4.82823e-08 7.44833 0 8.00061C4.82823e-08 8.5529 0.447715 9.00061 1 9.00061L1 7.00061ZM25.7071 8.70771C26.0976 8.31719 26.0976 7.68403 25.7071 7.2935L19.3431 0.929541C18.9526 0.539017 18.3195 0.539017 17.9289 0.929541C17.5384 1.32007 17.5384 1.95323 17.9289 2.34375L23.5858 8.00061L17.9289 13.6575C17.5384 14.048 17.5384 14.6812 17.9289 15.0717C18.3195 15.4622 18.9526 15.4622 19.3431 15.0717L25.7071 8.70771ZM1 9.00061L25 9.00061L25 7.00061L1 7.00061L1 9.00061Z" fill="black"/>
</svg>
