<svg width="26" height="16" viewBox="0 0 26 16" fill="none" xmlns="http://www.w3.org/2000/svg">
<path d="M25 9.00061C25.5523 9.00061 26 8.5529 26 8.00061C26 7.44833 25.5523 7.00061 25 7.00061L25 9.00061ZM0.292893 7.2935C-0.0976314 7.68403 -0.0976315 8.31719 0.292892 8.70771L6.65685 15.0717C7.04738 15.4622 7.68054 15.4622 8.07107 15.0717C8.46159 14.6812 8.46159 14.048 8.07107 13.6575L2.41421 8.00061L8.07107 2.34375C8.46159 1.95323 8.46159 1.32007 8.07107 0.929541C7.68054 0.539017 7.04738 0.539017 6.65686 0.929541L0.292893 7.2935ZM25 7.00061L1 7.00061L1 9.00061L25 9.00061L25 7.00061Z" fill="black"/>
</svg>
