<svg width="1042" height="650" viewBox="0 0 1042 650" fill="none" xmlns="http://www.w3.org/2000/svg">
<path d="M992.008 631.011C992.043 632.056 992.191 633.079 992.417 634.075C992.643 635.071 992.947 636.038 993.339 636.971C993.73 637.911 994.209 638.817 994.765 639.68C995.322 640.543 995.965 641.372 996.679 642.152C1001.44 648.154 1010.83 651.078 1019.53 649.637C1020.78 649.477 1021.99 649.268 1023.17 649.073C1028.57 648.579 1033.11 646.156 1036.06 642.806C1036.67 642.152 1037.3 641.539 1037.87 640.878C1043.72 635.391 1043 627.523 1037.94 622.064C1037.3 621.381 1036.69 620.699 1036.01 620.051C1032.22 616.403 1027.27 613.618 1021.37 612.671C1020.47 612.49 1019.53 612.357 1018.59 612.26C1017.64 612.169 1016.69 612.058 1015.72 612.023C1010.47 611.8 1005.17 613.193 1001.23 615.992C1000.45 616.514 999.74 617.078 999.027 617.642C998.174 618.325 997.383 619.063 996.652 619.836C994.469 622.175 992.817 624.96 992.217 627.906C992.052 628.929 991.973 629.967 992.008 631.011Z" fill="#D9ECBF"/>
<path d="M0.813046 308.251C-7.9877 390.63 56.0179 458.674 126.724 501.768C136.125 508.482 145.925 515.014 156.226 521.184C165.527 526.809 175.128 532.162 185.029 537.424C238.133 567.545 294.138 595.669 357.143 600.024C370.144 601.294 382.945 601.476 396.247 603.018C435.95 608.915 477.453 612 520.257 612C534.958 612 549.459 611.637 563.761 611.002C633.067 612 702.072 606.557 764.078 576.436C777.779 570.811 791.78 565.639 805.281 560.196C910.09 537.605 996.097 465.932 1019.7 369.944C1023.1 360.055 1025.7 350.075 1027.4 339.823C1029.1 329.571 1030 319.319 1030 308.795C1030 299.632 1029.3 290.559 1028 281.668C1026.7 272.686 1024.7 263.886 1022.1 255.176C1003.1 159.189 923.091 92.0519 837.284 39.8847C827.183 33.171 816.582 27.3645 805.481 22.2839C749.976 -2.75635 683.271 -6.65755 622.066 10.3989C614.465 10.5803 606.264 10.036 597.863 9.21943C572.561 6.95129 546.659 5.77186 520.257 5.77186C467.453 5.77186 416.548 10.5803 368.644 19.3807C352.643 22.3746 337.042 25.6408 321.74 29.2698C306.939 32.5359 292.238 36.6185 277.836 41.427C263.335 46.1447 249.134 51.4068 235.133 55.6709C136.125 71.185 66.1187 141.951 28.4155 222.606C23.7151 230.499 19.5147 238.483 15.9144 246.739C12.3141 254.995 9.31396 263.523 7.01376 272.233C3.71349 283.936 1.71312 296.003 0.813046 308.251Z" fill="#D9ECBF"/>
<path d="M961.379 610.759C972.142 613.477 982.101 609.885 988.862 605.139C989.891 604.532 990.902 603.888 991.872 603.193C992.756 602.568 993.608 601.912 994.452 601.228C999.233 597.61 1003.79 593.705 1005.31 588.651C1005.68 587.617 1005.89 586.573 1006.3 585.521C1007.67 582.412 1008.7 579.088 1009.35 575.582C1009.57 574.378 1009.74 573.182 1009.87 571.995C1011.04 566.344 1011.36 560.561 1008.3 554.752C1007.77 553.494 1007.29 552.222 1006.78 550.984C1005.36 541.853 997.174 533.072 984.834 528.812C983.578 528.294 982.297 527.839 980.967 527.451C979.636 527.063 978.294 526.741 976.902 526.486C975.691 526.264 974.48 526.101 973.285 525.992C972.078 525.881 970.884 525.831 969.693 525.833C956.714 525.062 946.634 529.987 938.447 535.75C937.407 536.414 936.48 537.141 935.642 537.927C931.497 541.866 929.98 547.234 931.316 552.66C931.226 553.287 931.031 553.946 930.797 554.614C930.117 556.631 929.572 558.724 929.176 560.886C928.383 565.21 928.255 569.496 928.7 573.632C928.855 575.015 929.053 576.372 929.303 577.713C929.513 579.005 929.832 580.307 930.252 581.603C930.658 582.905 931.141 584.196 931.495 585.446C932.06 593.931 940.367 601.379 950.468 606.422C951.441 606.999 952.434 607.536 953.471 608.031C954.509 608.526 955.592 608.979 956.709 609.378C958.207 609.932 959.773 610.388 961.379 610.759Z" fill="#D9ECBF"/>
</svg>
