<svg width="1033" height="650" viewBox="0 0 1033 650" fill="none" xmlns="http://www.w3.org/2000/svg">
<path d="M983.008 631.011C983.043 632.056 983.191 633.079 983.417 634.075C983.643 635.071 983.947 636.038 984.339 636.971C984.73 637.911 985.209 638.817 985.765 639.68C986.322 640.543 986.965 641.372 987.679 642.152C992.436 648.154 1001.83 651.078 1010.53 649.637C1011.78 649.477 1012.99 649.268 1014.17 649.073C1019.57 648.579 1024.11 646.156 1027.06 642.806C1027.67 642.152 1028.3 641.539 1028.87 640.878C1034.72 635.391 1034 627.523 1028.94 622.064C1028.3 621.381 1027.69 620.699 1027.01 620.051C1023.22 616.403 1018.27 613.618 1012.37 612.671C1011.47 612.49 1010.53 612.357 1009.59 612.26C1008.64 612.169 1007.69 612.058 1006.72 612.023C1001.47 611.8 996.167 613.193 992.227 615.992C991.453 616.514 990.74 617.078 990.027 617.642C989.174 618.325 988.383 619.063 987.652 619.836C985.469 622.175 983.817 624.96 983.217 627.906C983.052 628.929 982.973 629.967 983.008 631.011Z" fill="#ECC5CE"/>
<path d="M-8.18701 308.251C-16.9877 390.63 47.0179 458.674 117.724 501.768C127.125 508.482 136.925 515.014 147.226 521.184C156.527 526.809 166.128 532.162 176.029 537.424C229.133 567.545 285.138 595.669 348.143 600.024C361.144 601.294 373.945 601.476 387.247 603.018C426.95 608.915 468.453 612 511.257 612C525.958 612 540.46 611.637 554.761 611.002C624.067 612 693.072 606.557 755.078 576.436C768.779 570.811 782.78 565.639 796.281 560.196C901.09 537.605 987.097 465.932 1010.7 369.944C1014.1 360.055 1016.7 350.075 1018.4 339.823C1020.1 329.571 1021 319.319 1021 308.795C1021 299.632 1020.3 290.559 1019 281.668C1017.7 272.686 1015.7 263.886 1013.1 255.176C994.098 159.189 914.091 92.0519 828.284 39.8847C818.183 33.171 807.582 27.3645 796.481 22.2839C740.976 -2.75635 674.271 -6.65755 613.066 10.3989C605.465 10.5803 597.264 10.036 588.863 9.21943C563.561 6.95129 537.659 5.77186 511.257 5.77186C458.453 5.77186 407.548 10.5803 359.644 19.3807C343.643 22.3746 328.042 25.6408 312.74 29.2698C297.939 32.5359 283.238 36.6185 268.836 41.427C254.335 46.1447 240.134 51.4068 226.133 55.6709C127.125 71.185 57.1187 141.951 19.4155 222.606C14.7151 230.499 10.5147 238.483 6.91443 246.739C3.31409 254.995 0.313965 263.523 -1.98621 272.233C-5.2865 283.936 -7.28687 296.003 -8.18701 308.251Z" fill="#ECC5CE"/>
<path d="M952.379 610.759C963.142 613.477 973.101 609.885 979.862 605.139C980.891 604.532 981.902 603.888 982.872 603.193C983.756 602.568 984.608 601.912 985.452 601.228C990.233 597.61 994.793 593.705 996.315 588.651C996.678 587.617 996.894 586.573 997.298 585.521C998.674 582.412 999.705 579.088 1000.35 575.582C1000.57 574.378 1000.74 573.182 1000.87 571.995C1002.04 566.344 1002.36 560.561 999.305 554.752C998.766 553.494 998.293 552.222 997.775 550.984C996.361 541.853 988.174 533.072 975.834 528.812C974.578 528.294 973.297 527.839 971.967 527.451C970.636 527.063 969.294 526.741 967.902 526.486C966.691 526.264 965.48 526.101 964.285 525.992C963.078 525.881 961.884 525.831 960.693 525.833C947.714 525.062 937.634 529.987 929.447 535.75C928.407 536.414 927.48 537.141 926.642 537.927C922.497 541.866 920.98 547.234 922.316 552.66C922.226 553.287 922.031 553.946 921.797 554.614C921.117 556.631 920.572 558.724 920.176 560.886C919.383 565.21 919.255 569.496 919.7 573.632C919.855 575.015 920.053 576.372 920.303 577.713C920.513 579.005 920.832 580.307 921.252 581.603C921.658 582.905 922.141 584.196 922.495 585.446C923.06 593.931 931.367 601.379 941.468 606.422C942.441 606.999 943.434 607.536 944.471 608.031C945.509 608.526 946.592 608.979 947.709 609.378C949.207 609.932 950.773 610.388 952.379 610.759Z" fill="#ECC5CE"/>
</svg>
