<svg width="1035" height="650" viewBox="0 0 1035 650" fill="none" xmlns="http://www.w3.org/2000/svg">
<path d="M985.008 631.011C985.043 632.056 985.191 633.079 985.417 634.075C985.643 635.071 985.947 636.038 986.339 636.971C986.73 637.911 987.209 638.817 987.765 639.68C988.322 640.543 988.965 641.372 989.679 642.152C994.436 648.154 1003.83 651.078 1012.53 649.637C1013.78 649.477 1014.99 649.268 1016.17 649.073C1021.57 648.579 1026.11 646.156 1029.06 642.806C1029.67 642.152 1030.3 641.539 1030.87 640.878C1036.72 635.391 1036 627.523 1030.94 622.064C1030.3 621.381 1029.69 620.699 1029.01 620.051C1025.22 616.403 1020.27 613.618 1014.37 612.671C1013.47 612.49 1012.53 612.357 1011.59 612.26C1010.64 612.169 1009.69 612.058 1008.72 612.023C1003.47 611.8 998.167 613.193 994.227 615.992C993.453 616.514 992.74 617.078 992.027 617.642C991.174 618.325 990.383 619.063 989.652 619.836C987.469 622.175 985.817 624.96 985.217 627.906C985.052 628.929 984.973 629.967 985.008 631.011Z" fill="#E2D4F0"/>
<path d="M-6.18701 308.251C-14.9877 390.63 49.0179 458.674 119.724 501.768C129.125 508.482 138.925 515.014 149.226 521.184C158.527 526.809 168.128 532.162 178.029 537.424C231.133 567.545 287.138 595.669 350.143 600.024C363.144 601.294 375.945 601.476 389.247 603.018C428.95 608.915 470.453 612 513.257 612C527.958 612 542.46 611.637 556.761 611.002C626.067 612 695.072 606.557 757.078 576.436C770.779 570.811 784.78 565.639 798.281 560.196C903.09 537.605 989.097 465.932 1012.7 369.944C1016.1 360.055 1018.7 350.075 1020.4 339.823C1022.1 329.571 1023 319.319 1023 308.795C1023 299.632 1022.3 290.559 1021 281.668C1019.7 272.686 1017.7 263.886 1015.1 255.176C996.098 159.189 916.091 92.0519 830.284 39.8847C820.183 33.171 809.582 27.3645 798.481 22.2839C742.976 -2.75635 676.271 -6.65755 615.066 10.3989C607.465 10.5803 599.264 10.036 590.863 9.21943C565.561 6.95129 539.659 5.77186 513.257 5.77186C460.453 5.77186 409.548 10.5803 361.644 19.3807C345.643 22.3746 330.042 25.6408 314.74 29.2698C299.939 32.5359 285.238 36.6185 270.836 41.427C256.335 46.1447 242.134 51.4068 228.133 55.6709C129.125 71.185 59.1187 141.951 21.4155 222.606C16.7151 230.499 12.5147 238.483 8.91443 246.739C5.31409 254.995 2.31396 263.523 0.0137939 272.233C-3.2865 283.936 -5.28687 296.003 -6.18701 308.251Z" fill="#E2D4F0"/>
<path d="M954.379 610.759C965.142 613.477 975.101 609.885 981.862 605.139C982.891 604.532 983.902 603.888 984.872 603.193C985.756 602.568 986.608 601.912 987.452 601.228C992.233 597.61 996.793 593.705 998.315 588.651C998.678 587.617 998.894 586.573 999.298 585.521C1000.67 582.412 1001.7 579.088 1002.35 575.582C1002.57 574.378 1002.74 573.182 1002.87 571.995C1004.04 566.344 1004.36 560.561 1001.3 554.752C1000.77 553.494 1000.29 552.222 999.775 550.984C998.361 541.853 990.174 533.072 977.834 528.812C976.578 528.294 975.297 527.839 973.967 527.451C972.636 527.063 971.294 526.741 969.902 526.486C968.691 526.264 967.48 526.101 966.285 525.992C965.078 525.881 963.884 525.831 962.693 525.833C949.714 525.062 939.634 529.987 931.447 535.75C930.407 536.414 929.48 537.141 928.642 537.927C924.497 541.866 922.98 547.234 924.316 552.66C924.226 553.287 924.031 553.946 923.797 554.614C923.117 556.631 922.572 558.724 922.176 560.886C921.383 565.21 921.255 569.496 921.7 573.632C921.855 575.015 922.053 576.372 922.303 577.713C922.513 579.005 922.832 580.307 923.252 581.603C923.658 582.905 924.141 584.196 924.495 585.446C925.06 593.931 933.367 601.379 943.468 606.422C944.441 606.999 945.434 607.536 946.471 608.031C947.509 608.526 948.592 608.979 949.709 609.378C951.207 609.932 952.773 610.388 954.379 610.759Z" fill="#E2D4F0"/>
</svg>
