<?xml version="1.0" standalone="no"?>
<!DOCTYPE svg PUBLIC "-//W3C//DTD SVG 20010904//EN"
  "http://www.w3.org/TR/2001/REC-SVG-20010904/DTD/svg10.dtd">
<svg version="1.0" xmlns="http://www.w3.org/2000/svg"
     width="253.000000pt" height="54.000000pt" viewBox="0 0 253.000000 54.000000"
     preserveAspectRatio="xMidYMid meet">

  <g transform="translate(0.000000,54.000000) scale(0.100000,-0.100000)"
     fill="#000000" stroke="none">
    <path d="M142 507 l116 -31 40 -195 40 -196 1 228 1 227 -157 -1 -158 -1 117
-31z"/>
    <path d="M460 271 l0 -151 65 0 c57 0 69 3 90 25 32 31 32 75 1 112 -17 20
-22 34 -15 44 14 23 10 65 -9 89 -14 18 -32 24 -75 28 l-57 4 0 -151z m94 119
c15 -5 28 -20 32 -35 9 -38 -19 -65 -68 -65 l-38 0 0 55 c0 52 2 55 24 55 14
0 36 -4 50 -10z m41 -145 c52 -51 18 -105 -65 -105 l-50 0 0 65 0 65 45 0 c35
0 52 -6 70 -25z"/>
    <path d="M1010 265 l0 -145 59 0 c77 0 111 24 111 79 0 27 -7 44 -25 61 -19
17 -22 27 -15 41 16 29 12 75 -8 92 -12 11 -36 17 -70 17 l-52 0 0 -145z m96
127 c6 -4 16 -17 23 -30 10 -19 10 -28 -4 -48 -12 -19 -24 -24 -60 -24 l-45 0
0 55 0 55 38 0 c20 0 42 -4 48 -8z m25 -133 c29 -15 41 -54 27 -84 -12 -27
-67 -49 -108 -43 -23 3 -25 7 -28 71 l-3 67 46 0 c26 0 55 -5 66 -11z"/>
    <path d="M1224 265 c0 -82 2 -115 3 -72 2 43 2 110 0 150 -1 40 -3 5 -3 -78z"/>
    <path d="M674 389 c-3 -6 -1 -16 5 -22 8 -8 11 -5 11 11 0 24 -5 28 -16 11z"/>
    <path d="M677 323 c-11 -11 -8 -203 3 -203 6 0 10 42 10 105 0 105 -1 111 -13
98z"/>
    <path d="M784 311 c-36 -22 -58 -75 -48 -115 3 -14 17 -37 31 -51 30 -29 86
-34 121 -9 20 14 22 14 22 -4 0 -11 -9 -31 -21 -46 -17 -21 -29 -26 -65 -26
-47 0 -52 -13 -9 -24 35 -9 91 19 104 53 7 16 10 70 8 136 -2 74 -6 102 -11
87 -8 -21 -10 -21 -25 -8 -29 26 -73 29 -107 7z m106 -39 c27 -34 25 -77 -5
-107 -42 -43 -106 -24 -128 37 -11 30 13 79 46 93 38 16 62 9 87 -23z"/>
    <path d="M1282 247 c-2 -71 0 -80 23 -102 32 -33 78 -33 110 0 23 22 25 31 23
102 l-1 78 -6 -77 c-7 -88 -22 -111 -71 -111 -49 0 -64 23 -71 111 l-6 77 -1
-78z"/>
    <path d="M1509 291 c-20 -20 -29 -40 -29 -61 0 -38 24 -86 49 -100 47 -24 131
-1 131 37 0 13 -5 12 -25 -7 -34 -32 -83 -30 -112 5 -42 48 -33 55 68 55 l91
0 -6 28 c-17 73 -112 97 -167 43z m104 7 c23 -12 46 -37 47 -50 0 -5 -36 -8
-80 -8 -44 0 -80 3 -80 8 1 21 51 61 78 62 7 0 23 -5 35 -12z"/>
    <path d="M185 260 c-3 -5 -1 -10 4 -10 6 0 11 5 11 10 0 6 -2 10 -4 10 -3 0
-8 -4 -11 -10z"/>
    <path d="M130 40 l-85 -28 145 -1 145 0 -35 29 c-43 36 -61 36 -170 0z"/>
  </g>
</svg>
