<svg width="1000" height="593" viewBox="0 0 1000 593" fill="none" xmlns="http://www.w3.org/2000/svg">
<path d="M149.129 460.53C149.658 467.479 148.335 474.324 145.513 480.655C144.572 482.765 143.484 484.823 142.219 486.831C136.839 502.451 125.842 517.532 106.612 522.576C90.8809 526.719 74.6207 523.451 61.6244 515.37C58.8311 513.852 55.7143 512.719 52.6858 511.536C30.1039 505.334 15.5198 486.754 14.3436 467.221C14.0202 464.468 13.4909 461.894 13.2263 459.192C8.84515 437.267 23.0764 418.043 43.9235 409.165C46.8933 407.904 50.01 406.849 53.2444 406.025C69.681 402.731 86.4116 397.044 103.407 401.856C121.402 406.874 133.134 420.23 140.661 434.41C142.219 437.035 143.542 439.763 144.689 442.568C145.836 445.373 146.865 448.255 147.659 451.24C148.423 454.2 148.953 457.314 149.129 460.53Z" fill="white"/>
<path d="M87.0478 558.597C86.9872 560.477 86.7298 562.319 86.336 564.112C85.9423 565.904 85.4122 567.646 84.7307 569.326C84.0493 571.018 83.2164 572.648 82.2472 574.202C81.2779 575.756 80.1573 577.248 78.9155 578.652C70.6318 589.456 54.2764 594.721 39.1173 592.126C36.9518 591.838 34.8468 591.462 32.7872 591.111C23.3828 590.221 15.4777 585.859 10.3439 579.83C9.28387 578.652 8.17836 577.549 7.19401 576.358C-2.99783 566.481 -1.74086 552.317 7.07289 542.49C8.17839 541.262 9.2536 540.033 10.4348 538.867C17.0224 532.299 25.6544 527.286 35.922 525.581C37.497 525.255 39.1174 525.017 40.768 524.841C42.4187 524.679 44.0694 524.478 45.7655 524.415C54.8973 524.014 64.1351 526.521 70.9952 531.56C72.343 532.5 73.5848 533.515 74.8266 534.531C76.3108 535.759 77.6889 537.088 78.9609 538.479C82.7621 542.69 85.6394 547.704 86.6843 553.006C86.9721 554.849 87.1083 556.716 87.0478 558.597Z" fill="white"/>
<path d="M999.993 276.311C999.545 409.575 868.539 451.339 782.768 499.177C770.675 506.391 758.023 512.719 744.922 518.034C705.62 534.36 662.623 542.966 620.074 546.383C605.854 547.522 591.745 548.028 577.861 548.281C562.521 549.926 546.845 551.192 531.057 551.951C515.269 552.71 499.257 552.963 484.365 553.596C405.985 565.239 324.245 577.895 248.105 538.663C207.795 518.287 179.242 484.876 162.335 445.517C156.736 432.355 151.921 419.067 146.995 407.044C101.31 341.235 74.4372 252.645 116.986 172.915C160.655 90.6528 243.514 62.8104 320.662 49.0157C332.419 46.3581 344.288 43.7004 357.501 38.2584C368.586 33.7024 380.007 29.5261 391.652 25.8559C427.035 14.5924 464.994 7.37868 504.743 4.84755C515.269 4.08821 525.906 3.32887 536.543 2.69609C619.85 -6.9222 707.188 8.26457 778.066 63.3166C788.143 70.91 795.981 74.8333 805.947 78.2503C884.103 99.3852 975.919 142.414 996.634 241.635C998.873 252.772 1000.1 264.415 999.993 276.311Z" fill="white"/>
<path d="M217.631 336.64H267.995V147.639H217.631V336.64Z" fill="#005EB8"/>
<path d="M297.513 336.64H348.689L363.582 296.295H434.525L448.605 336.64H503.844L431.005 147.639H369.268L297.513 336.64ZM422.611 260.552H375.225L399.595 186.63H400.137L422.611 260.552Z" fill="#005EB8"/>
<path d="M528.308 336.64H578.672V270.571H598.168C645.283 270.571 673.173 247.826 673.173 209.646C673.173 167.135 646.095 147.639 588.42 147.639H528.308V336.64ZM578.672 183.381H591.669C608.999 183.381 622.808 189.609 622.808 208.834C622.808 228.601 608.999 234.829 591.669 234.829H578.672V183.381Z" fill="#005EB8"/>
<path d="M736.36 336.64H786.724V185.006H833.297V147.639H689.786V185.006H736.36V336.64Z" fill="#005EB8"/>
<path d="M274.011 370.817C267.292 368.577 259.916 367.523 252.012 367.523C235.809 367.523 219.87 375.032 219.87 395.582C219.87 426.011 260.179 418.766 260.179 436.286C260.179 444.585 250.826 448.141 243.845 448.141C236.6 448.141 229.354 445.902 223.031 442.477L221.319 459.075C230.408 461.314 234.887 462.632 244.898 462.632C263.472 462.632 279.411 454.991 279.411 434.837C279.411 404.012 239.102 410.73 239.102 394.791C239.102 384.78 247.27 382.013 253.593 382.013C260.047 382.013 266.502 383.462 272.298 385.965L274.011 370.817Z" fill="#005EB8"/>
<path d="M294.516 461.051H312.168V427.855C312.168 419.161 314.934 405.329 327.712 405.329C339.04 405.329 339.172 416.526 339.172 424.825V461.051H356.824V418.239C356.824 402.958 349.842 391.63 333.771 391.63C324.55 391.63 316.91 395.845 312.431 402.431H312.168V362.254H294.516V461.051Z" fill="#005EB8"/>
<path d="M387.56 420.478C388.35 411.389 393.356 404.539 403.235 404.539C413.115 404.539 417.067 411.916 417.594 420.478H387.56ZM429.449 442.872C422.863 446.561 415.486 449.722 406.924 449.722C395.99 449.722 388.35 443.531 387.56 432.597H434.455C434.455 408.886 427.342 391.63 402.182 391.63C381.105 391.63 370.698 407.832 370.698 427.46C370.698 449.722 383.74 462.632 406.133 462.632C415.618 462.632 422.995 460.787 429.449 457.231V442.872Z" fill="#005EB8"/>
<path d="M454.697 461.051H472.349V406.12H487.761V393.21H472.349V384.78C472.349 379.511 474.193 374.373 480.121 374.373C483.941 374.373 486.18 375.822 487.761 376.744L489.21 362.122C485.785 361.332 480.779 360.673 476.301 360.673C462.337 360.673 454.697 370.158 454.697 383.726V393.21H441.656V406.12H454.697V461.051Z" fill="#005EB8"/>
<path d="M505.896 461.051H523.548V406.12H538.96V393.21H523.548V384.78C523.548 379.511 525.392 374.373 531.32 374.373C535.14 374.373 537.38 375.822 538.96 376.744L540.409 362.122C536.984 361.332 531.979 360.673 527.5 360.673C513.537 360.673 505.896 370.158 505.896 383.726V393.21H492.855V406.12H505.896V461.051Z" fill="#005EB8"/>
<path d="M551.036 461.051H568.688V393.21H551.036V461.051ZM551.036 380.828H568.688V363.967H551.036V380.828Z" fill="#005EB8"/>
<path d="M599.818 420.478C600.608 411.389 605.614 404.539 615.494 404.539C625.373 404.539 629.325 411.916 629.852 420.478H599.818ZM641.708 442.872C635.121 446.561 627.745 449.722 619.182 449.722C608.249 449.722 600.608 443.531 599.818 432.597H646.713C646.713 408.886 639.6 391.63 614.44 391.63C593.363 391.63 582.957 407.832 582.957 427.46C582.957 449.722 595.998 462.632 618.392 462.632C627.876 462.632 635.253 460.787 641.708 457.231V442.872Z" fill="#005EB8"/>
<path d="M660.896 461.051H678.548V362.254H660.896V461.051Z" fill="#005EB8"/>
<path d="M711.258 426.933C711.258 417.844 714.42 405.329 725.88 405.329C737.209 405.329 741.688 417.449 741.688 426.933C741.688 436.549 737.868 448.932 726.144 448.932C714.552 448.932 711.258 436.286 711.258 426.933ZM742.346 461.051H759.471V362.254H741.82V401.114H741.556C736.287 394.659 730.096 391.63 721.27 391.63C700.457 391.63 692.816 408.228 692.816 426.933C692.816 445.507 700.457 462.632 721.27 462.632C729.569 462.632 736.814 459.997 742.083 453.41H742.346V461.051Z" fill="#005EB8"/>
</svg>
